<svg width="48" height="48" viewBox="0 0 48 48" fill="none" xmlns="http://www.w3.org/2000/svg">
<path d="M22.9586 0C19.2747 1.56224 3.70505 17.9869 0 24.2359C6.32286 31.9943 16.6991 39.5733 24.067 47.374C36.1533 37.5255 40.7028 30.2104 47.7962 23.6448C41.5367 15.3585 31.7093 6.39675 22.9586 0Z" fill="#3F2564"/>
<path d="M34.8339 28.1309C34.7916 28.1098 34.7389 28.0887 34.6861 28.0782C34.6544 28.1732 34.6439 28.2682 34.6439 28.4159C34.475 28.3209 34.4328 28.1309 34.3378 27.9726C34.1794 27.8143 33.81 27.4976 33.5566 27.2654C33.4511 27.107 33.4933 27.3182 33.3244 27.202C33.0288 27.582 32.6383 28.0254 32.1105 28.3209C31.6038 28.6059 31.0972 29.0387 30.6116 29.3765C29.9888 29.8093 29.3555 30.2949 28.7538 30.7699C28.5532 30.9282 28.4793 31.076 28.2893 31.2554C28.321 31.5299 28.2999 31.646 28.321 31.9204C27.5927 31.9416 26.7904 31.9521 26.0621 31.9732C25.7454 31.9732 25.1437 31.8888 24.9221 32.026C24.7743 32.026 24.6582 31.9415 24.5737 31.8888H24.521C24.6371 31.6988 25.0804 31.6565 25.2599 31.4982C26.0515 30.8332 27.2232 30.5799 28.131 30.031C29.4399 29.2393 30.5271 28.3209 31.5933 27.297C31.9944 26.9065 32.5327 26.6215 32.8811 26.1781C33.5566 25.2809 34.1161 24.4259 34.4116 23.1487C34.4011 22.1881 34.4961 21.1747 34.475 20.2142C34.6544 19.7286 34.5594 18.8525 34.475 18.293C34.4328 18.0291 34.5278 17.8497 34.5594 17.7019C34.6016 17.533 34.5278 17.1952 34.4961 17.0475C34.4222 16.7097 34.57 16.3191 34.4222 16.0869V16.0341H34.3694C34.3694 16.3613 34.2639 16.7097 34.2639 17.0369C34.1689 17.0158 34.1689 17.0264 34.1161 16.9947C33.8733 17.2797 33.8627 17.628 33.6411 17.9447C33.3033 18.4408 32.9338 18.958 32.5749 19.4436C32.0894 20.0875 31.5088 20.5731 30.9072 21.2381C28.5849 23.8137 26.896 24.9959 23.4126 26.3576C21.787 27.0015 20.2987 27.6243 18.2614 27.8987C17.2586 28.0043 16.2136 28.0465 15.2108 28.1415C14.9997 28.1309 14.9892 28.0993 14.8625 28.0465C14.8625 27.772 14.8731 27.4132 14.8097 27.2126C14.7992 27.202 14.778 27.1809 14.7569 27.1598C14.683 27.2759 14.7253 27.582 14.6619 27.6982C14.5247 28.1098 14.1025 28.0148 13.7753 28.2365C13.5958 28.3632 13.3108 28.6059 13.2264 28.8276C13.1841 28.9332 13.2158 29.0071 13.1736 29.0704C13.2264 29.556 13.8069 29.8726 14.018 30.3476C14.1342 30.601 14.0919 30.8965 14.2186 31.1815C14.2714 31.3082 14.4192 31.4032 14.4614 31.5721C14.5036 31.7093 14.4192 31.9099 14.4086 31.9627C14.3769 32.1949 14.5353 32.3216 14.6092 32.4482C14.8942 32.5221 15.1053 32.6171 15.2531 32.3532C15.4325 32.3954 15.6753 32.5327 15.802 32.6488C16.2664 32.6277 16.6253 32.2266 17.1847 32.3532C17.8392 32.501 18.5253 32.5538 19.2114 32.3954H19.8026C20.2881 32.2899 20.9637 32.2688 21.4915 32.2477C21.7026 32.2371 21.9031 32.0999 22.0298 32.1527C22.1354 32.1843 22.2515 32.3954 22.3782 32.4377C22.9482 32.6277 24.426 32.3216 25.0065 32.2477C25.1332 32.2266 25.3549 32.3321 25.4499 32.3427C26.0515 32.4799 26.5793 32.311 26.9804 32.1949C27.2443 32.121 27.3921 32.3004 27.5188 32.3427C27.6666 32.3849 28.5955 32.4482 28.6588 32.4377C28.7327 32.4271 28.9544 32.3532 29.1021 32.3849C29.4505 32.4799 30.0099 32.7227 30.5799 32.5854C31.9944 32.2477 32.955 31.836 34.5278 31.8677C34.6228 31.7727 34.8022 31.836 34.8655 31.6988C34.9394 31.5721 35.045 29.5876 35.0133 29.556C35.0661 29.3132 35.1822 29.366 35.2561 29.1654C35.3828 29.0071 34.95 28.2893 34.8339 28.1309Z" fill="#C4AF63"/>
<path d="M14.6091 24.8059C14.8203 24.6687 14.9364 24.3731 15.1475 24.2254C15.538 23.9509 16.0447 23.6765 16.3297 23.2965C16.7625 22.7265 17.2164 22.2303 17.5858 21.6392C17.7864 21.312 17.7231 20.7631 18.2086 20.6998C18.2192 20.6153 18.2403 20.5414 18.2509 20.457H18.3986C18.557 21.5125 19.2009 22.4942 19.6337 23.2965C19.8342 23.6659 19.8659 24.0565 20.2248 24.2465C20.4148 24.3415 21.2276 24.637 21.4176 24.637C21.4809 24.637 21.5442 24.5526 21.6603 24.5948C21.9348 24.6687 22.357 24.8587 22.6526 24.9326C22.8954 24.9959 23.1276 24.8587 23.2965 24.8376C23.497 24.8059 23.7715 24.9537 24.0354 24.8798C24.2676 24.827 24.5421 24.7426 24.7743 24.637C25.4498 24.352 25.8193 23.8559 26.3576 23.497C26.7587 23.2226 27.1071 23.0431 27.4976 22.7687C27.8777 22.4942 27.8882 22.0826 28.1415 21.692C28.3527 21.4809 28.5743 21.2698 28.7854 21.0587C29.0493 20.6786 29.2393 20.0981 29.4293 19.697C29.5771 19.3803 29.4821 19.0425 29.5771 18.6731C29.651 18.3986 29.8093 18.0503 29.8727 17.7969V17.058C30.2316 15.5169 28.6693 13.7647 28.0465 12.9413C27.846 12.6774 26.7904 11.5269 26.516 11.4741C26.4315 11.4319 26.3576 11.453 26.2732 11.5269C25.8193 11.4319 25.8615 10.9041 25.5343 10.7035C25.1754 10.4818 24.7848 10.3763 24.2993 10.2602C23.9932 10.1863 23.4337 10.2391 23.2543 10.2602C23.117 10.2707 22.7792 10.1546 22.5681 10.2074C22.1142 10.313 21.4809 10.2918 21.0798 10.3974C18.6942 11.0307 16.5514 12.5085 15.5908 14.5247C15.4325 14.8625 15.4853 15.3269 15.3375 15.6436C14.968 16.4775 14.4191 17.248 14.0497 18.1347C13.9019 18.5042 13.9441 19.0108 13.7541 19.3592C13.6908 19.4753 13.5219 19.602 13.4586 19.7075C13.1102 20.2353 12.8886 20.8053 12.5191 21.3225C12.0441 21.9664 11.4319 22.5998 11.0308 23.3176C10.9569 23.4548 11.0202 23.5604 10.9358 23.7081C10.8196 23.9192 10.4924 23.9404 10.3869 24.1937C10.2813 24.4048 10.5241 24.6265 10.6296 24.7848C10.9358 24.8587 11.5797 25.0698 11.8963 25.0487C12.8463 24.9537 14.0814 25.1437 14.6091 24.8059ZM22.547 13.9019C22.8426 13.7963 23.2331 13.8491 23.4865 13.6908C23.8876 13.7541 24.1832 14.018 24.5315 14.1552C24.6793 14.208 24.8798 14.1869 24.9959 14.2502C25.1965 14.3347 25.471 15.7491 25.3654 16.0025C24.8693 17.1214 23.8348 18.4092 22.547 18.7258C22.2092 18.8103 21.8926 18.5675 21.7131 18.4725C21.0692 18.1031 20.7526 17.7969 20.5098 17.0264C20.3514 16.4986 20.6259 15.918 20.362 15.4852C20.3514 14.7041 21.9031 14.113 22.547 13.9019Z" fill="#C4AF63"/>
</svg>
