<svg width="139" height="32" viewBox="0 0 139 32" fill="none" xmlns="http://www.w3.org/2000/svg">
<path d="M15.3736 0.208679C12.9177 1.25017 2.5379 12.1999 0.0678711 16.3659C4.28311 21.5382 11.2006 26.5909 16.1125 31.7913C24.17 25.2257 27.203 20.3489 31.932 15.9719C27.759 10.4477 21.2074 4.47318 15.3736 0.208679Z" fill="#3F2564"/>
<path d="M23.2905 18.9627C23.2624 18.9486 23.2272 18.9345 23.192 18.9275C23.1709 18.9908 23.1639 19.0542 23.1639 19.1527C23.0513 19.0894 23.0231 18.9627 22.9598 18.8571C22.8542 18.7516 22.6079 18.5405 22.439 18.3856C22.3687 18.2801 22.3968 18.4208 22.2842 18.3434C22.0872 18.5968 21.8268 18.8923 21.475 19.0894C21.1372 19.2794 20.7994 19.5679 20.4757 19.7931C20.0605 20.0816 19.6383 20.4053 19.2371 20.722C19.1034 20.8275 19.0542 20.926 18.9275 21.0457C18.9486 21.2286 18.9345 21.306 18.9486 21.489C18.4631 21.5031 17.9282 21.5101 17.4427 21.5242C17.2316 21.5242 16.8304 21.4679 16.6827 21.5594C16.5841 21.5594 16.5067 21.5031 16.4504 21.4679H16.4153C16.4927 21.3412 16.7882 21.3131 16.9079 21.2075C17.4356 20.7642 18.2168 20.5953 18.822 20.2294C19.6946 19.7016 20.4194 19.0894 21.1301 18.4067C21.3975 18.1464 21.7564 17.9564 21.9887 17.6608C22.439 17.0627 22.812 16.4927 23.009 15.6412C23.002 15.0008 23.0653 14.3252 23.0513 13.6848C23.1709 13.3611 23.1076 12.777 23.0513 12.4041C23.0231 12.2281 23.0865 12.1085 23.1076 12.01C23.1357 11.8974 23.0865 11.6722 23.0653 11.5737C23.0161 11.3485 23.1146 11.0881 23.0161 10.9333V10.8981H22.9809C22.9809 11.1163 22.9105 11.3485 22.9105 11.5667C22.8472 11.5526 22.8472 11.5596 22.812 11.5385C22.6502 11.7285 22.6431 11.9607 22.4953 12.1719C22.2702 12.5026 22.0238 12.8474 21.7846 13.1711C21.4609 13.6004 21.0738 13.9241 20.6727 14.3674C19.1246 16.0845 17.9986 16.8727 15.6764 17.7804C14.5926 18.2097 13.6004 18.6249 12.2422 18.8079C11.5737 18.8782 10.877 18.9064 10.2085 18.9697C10.0678 18.9627 10.0607 18.9416 9.97628 18.9064C9.97628 18.7234 9.98332 18.4842 9.9411 18.3505C9.93406 18.3434 9.91999 18.3293 9.90591 18.3153C9.85665 18.3927 9.8848 18.5968 9.84258 18.6742C9.75109 18.9486 9.46961 18.8853 9.25146 19.0331C9.13183 19.1175 8.94182 19.2794 8.88553 19.4271C8.85738 19.4975 8.87849 19.5468 8.85034 19.589C8.88553 19.9127 9.27257 20.1238 9.41331 20.4405C9.49072 20.6094 9.46257 20.8064 9.54702 20.9964C9.5822 21.0809 9.68072 21.1442 9.70887 21.2568C9.73702 21.3483 9.68072 21.482 9.67369 21.5172C9.65258 21.672 9.75813 21.7564 9.80739 21.8409C9.99739 21.8901 10.1381 21.9535 10.2367 21.7775C10.3563 21.8057 10.5181 21.8972 10.6026 21.9746C10.9122 21.9605 11.1515 21.6931 11.5245 21.7775C11.9608 21.8761 12.4182 21.9112 12.8756 21.8057H13.2697C13.5934 21.7353 14.0437 21.7212 14.3956 21.7072C14.5363 21.7001 14.6701 21.6086 14.7545 21.6438C14.8249 21.6649 14.9023 21.8057 14.9867 21.8338C15.3667 21.9605 16.3519 21.7564 16.739 21.7072C16.8234 21.6931 16.9712 21.7635 17.0345 21.7705C17.4356 21.862 17.7875 21.7494 18.0549 21.672C18.2308 21.6227 18.3294 21.7423 18.4138 21.7705C18.5123 21.7986 19.1316 21.8409 19.1738 21.8338C19.2231 21.8268 19.3709 21.7775 19.4694 21.7986C19.7016 21.862 20.0746 22.0238 20.4546 21.9324C21.3975 21.7072 22.0379 21.4327 23.0865 21.4538C23.1498 21.3905 23.2694 21.4327 23.3116 21.3412C23.3609 21.2568 23.4313 19.9338 23.4102 19.9127C23.4454 19.7508 23.5228 19.786 23.572 19.6523C23.6565 19.5468 23.3679 19.0682 23.2905 18.9627Z" fill="#C4AF63"/>
<path d="M9.8073 16.746C9.94804 16.6545 10.0254 16.4574 10.1662 16.3589C10.4266 16.176 10.7643 15.993 10.9543 15.7397C11.2429 15.3596 11.5455 15.0289 11.7918 14.6348C11.9255 14.4167 11.8833 14.0507 12.207 14.0085C12.214 13.9522 12.2281 13.903 12.2351 13.8467H12.3336C12.4392 14.5504 12.8685 15.2048 13.157 15.7397C13.2907 15.986 13.3118 16.2463 13.5511 16.373C13.6777 16.4363 14.2196 16.6334 14.3462 16.6334C14.3885 16.6334 14.4307 16.5771 14.5081 16.6052C14.6911 16.6545 14.9726 16.7811 15.1696 16.8304C15.3314 16.8726 15.4863 16.7811 15.5989 16.7671C15.7326 16.746 15.9155 16.8445 16.0915 16.7952C16.2463 16.76 16.4292 16.7037 16.5841 16.6334C17.0344 16.4434 17.2807 16.1126 17.6396 15.8734C17.907 15.6904 18.1393 15.5708 18.3996 15.3878C18.653 15.2048 18.66 14.9304 18.8289 14.67C18.9696 14.5293 19.1174 14.3885 19.2582 14.2478C19.4341 13.9944 19.5608 13.6074 19.6874 13.34C19.7859 13.1289 19.7226 12.9037 19.786 12.6574C19.8352 12.4744 19.9408 12.2422 19.983 12.0733V11.5807C20.2223 10.5533 19.1808 9.38512 18.7656 8.83623C18.6319 8.6603 17.9281 7.89325 17.7452 7.85807C17.6889 7.82992 17.6396 7.84399 17.5833 7.89325C17.2807 7.82992 17.3089 7.47806 17.0907 7.34436C16.8515 7.19658 16.5911 7.1262 16.2674 7.0488C16.0633 6.99954 15.6903 7.03472 15.5707 7.0488C15.4792 7.05583 15.254 6.97842 15.1133 7.01361C14.8107 7.08398 14.3885 7.06991 14.1211 7.14028C12.5307 7.56251 11.1021 8.5477 10.4618 9.8918C10.3562 10.117 10.3914 10.4266 10.2929 10.6377C10.0466 11.1937 9.68063 11.7074 9.43433 12.2985C9.33581 12.5448 9.36396 12.8826 9.23729 13.1148C9.19507 13.1922 9.08247 13.2767 9.04025 13.347C8.80803 13.6989 8.66024 14.0789 8.41395 14.4237C8.09727 14.853 7.68912 15.2752 7.42171 15.7537C7.37245 15.8452 7.41467 15.9156 7.35838 16.0141C7.28097 16.1548 7.06282 16.1689 6.99245 16.3378C6.92207 16.4786 7.08393 16.6263 7.1543 16.7319C7.35838 16.7811 7.78764 16.9219 7.99875 16.9078C8.6321 16.8445 9.45544 16.9711 9.8073 16.746ZM15.0992 9.47661C15.2963 9.40623 15.5566 9.44142 15.7255 9.33586C15.9929 9.37809 16.19 9.55401 16.4222 9.6455C16.5207 9.68068 16.6544 9.66661 16.7318 9.70883C16.8655 9.76513 17.0485 10.7081 16.9781 10.877C16.6474 11.6229 15.9577 12.4815 15.0992 12.6926C14.874 12.7489 14.6629 12.587 14.5433 12.5237C14.114 12.2774 13.9029 12.0733 13.7411 11.5596C13.6355 11.2077 13.8185 10.8207 13.6425 10.5322C13.6355 10.0114 14.67 9.61735 15.0992 9.47661Z" fill="#C4AF63"/>
<path d="M66.0165 29.4447C65.9233 29.3639 65.8116 29.1777 65.6874 28.892L64.1971 25.2782H64.0171L62.4647 28.8486C62.3343 29.159 62.2101 29.3702 62.1046 29.4633C62.0611 29.513 61.9431 29.5502 61.7631 29.5875H61.7444V29.7551H63.1726V29.5875H63.1478C62.9428 29.5689 62.8125 29.5378 62.7504 29.4943C62.6945 29.4509 62.6634 29.4012 62.6634 29.3453C62.6634 29.2646 62.7007 29.1404 62.7752 28.979C62.7752 28.979 63.0484 28.3456 63.0608 28.3146H64.7125L64.9671 28.9169C65.0478 29.1156 65.0913 29.2646 65.0913 29.3515C65.0913 29.4136 65.0665 29.4633 65.0106 29.5068C64.9547 29.5502 64.8367 29.5751 64.6753 29.5875H64.6504V29.7551H66.4387V29.5875H66.4139C66.24 29.5751 66.1096 29.5254 66.0103 29.4447M116.368 25.719C116.53 25.6756 116.722 25.6507 116.927 25.6507C117.318 25.6507 117.623 25.7377 117.827 25.9115C118.026 26.0792 118.132 26.2903 118.132 26.5325C118.132 26.6877 118.088 26.8367 118.008 26.9671C117.927 27.1037 117.809 27.2031 117.654 27.259C117.498 27.3273 117.269 27.3583 116.952 27.3583L116.617 27.3459C116.617 27.3459 116.406 27.3211 116.368 27.3149V25.7128V25.719ZM69.649 25.3775V25.5452H69.829C69.9905 25.5452 70.1147 25.5886 70.183 25.6694C70.2202 25.7128 70.2699 25.8246 70.2699 26.1475V28.5567C70.183 28.4512 67.6433 25.3775 67.6433 25.3775H66.4139V25.5452H66.4387C66.5629 25.5452 66.6561 25.5514 66.7119 25.57C66.8361 25.6073 66.9293 25.6507 66.9914 25.6942C67.0597 25.7377 67.1528 25.837 67.277 25.9798V28.979C67.277 29.2149 67.2459 29.3639 67.2087 29.426C67.1342 29.5316 67.01 29.5813 66.8299 29.5813H66.6498V29.7489H68.227V29.5813H68.0469C67.8855 29.5813 67.7675 29.5378 67.6868 29.4571C67.6496 29.4136 67.6061 29.3019 67.6061 28.979V26.3834C67.693 26.489 70.4438 29.8234 70.4438 29.8234H70.599V26.1475C70.599 25.9115 70.6238 25.7625 70.6611 25.7004C70.7356 25.6011 70.8598 25.5452 71.0337 25.5452H71.2137V25.3775H69.6365H69.649ZM118.728 27.8054C118.585 27.6688 118.374 27.5756 118.101 27.5136C118.33 27.4328 118.517 27.3149 118.641 27.1534C118.777 26.9795 118.846 26.7746 118.846 26.5573C118.846 26.2965 118.759 26.0668 118.585 25.8681C118.411 25.6694 118.157 25.5328 117.834 25.4583C117.623 25.4024 117.331 25.3837 116.983 25.3837H115.07V25.5514H115.263C115.418 25.5514 115.53 25.5949 115.611 25.6818C115.667 25.7501 115.698 25.9115 115.698 26.1785V28.9665C115.698 29.2025 115.673 29.3577 115.629 29.426C115.555 29.5378 115.437 29.5937 115.263 29.5937H115.07V29.7613H117.157C117.647 29.7613 118.02 29.7179 118.262 29.6247C118.504 29.5316 118.697 29.3826 118.84 29.1839C118.976 28.9852 119.044 28.7678 119.044 28.5505C119.044 28.2587 118.939 28.0103 118.722 27.8116M58.6708 25.719C58.8385 25.6756 59.0247 25.6507 59.2296 25.6507C59.6208 25.6507 59.9251 25.7377 60.13 25.9115C60.3349 26.0792 60.4343 26.2903 60.4343 26.5325C60.4343 26.6877 60.3908 26.8367 60.3101 26.9671C60.2294 27.1037 60.1114 27.2031 59.9561 27.259C59.8009 27.3273 59.565 27.3583 59.2545 27.3583L58.9254 27.3459C58.9254 27.3459 58.7143 27.3211 58.677 27.3149V25.7128L58.6708 25.719ZM60.4032 27.5136C60.633 27.4328 60.8192 27.3149 60.9434 27.1534C61.08 26.9795 61.1483 26.7746 61.1483 26.5573C61.1483 26.2965 61.0614 26.0668 60.8875 25.8681C60.7199 25.6694 60.4653 25.5328 60.1362 25.4583C59.9251 25.4024 59.6333 25.3837 59.2855 25.3837H57.373V25.5514H57.5655C57.7208 25.5514 57.8325 25.5949 57.9133 25.6818C57.9691 25.7501 58.0002 25.9115 58.0002 26.1785V28.9665C58.0002 29.2025 57.9754 29.3577 57.9257 29.426C57.8512 29.5378 57.7332 29.5937 57.5655 29.5937H57.373V29.7613H59.4594C59.9499 29.7613 60.3225 29.7179 60.5647 29.6247C60.8068 29.5316 61.0055 29.3826 61.1421 29.1839C61.2787 28.9852 61.3533 28.7678 61.3533 28.5505C61.3533 28.2587 61.2477 28.0103 61.0304 27.8116C60.8875 27.675 60.6702 27.5819 60.4032 27.5198M63.1974 28.0165C63.2223 27.9482 63.8743 26.4642 63.9177 26.3586C63.955 26.4642 64.5697 27.9482 64.6008 28.0165H63.1974ZM101.671 27.5073H101.696C101.863 27.5073 101.987 27.526 102.049 27.557C102.112 27.5881 102.161 27.6377 102.192 27.706C102.223 27.7681 102.242 27.9172 102.242 28.1345V29.3453C102.112 29.4198 101.969 29.4757 101.826 29.513C101.677 29.5502 101.528 29.5689 101.366 29.5689C101.099 29.5689 100.832 29.4881 100.578 29.3391C100.323 29.1839 100.118 28.9355 99.9569 28.6002C99.7954 28.2649 99.7209 27.8923 99.7209 27.4887C99.7209 26.9858 99.8451 26.5511 100.081 26.191C100.36 25.7687 100.777 25.5452 101.317 25.5452C101.714 25.5452 102.043 25.6694 102.292 25.9115C102.465 26.0792 102.614 26.34 102.72 26.6753V26.6939H102.894L102.795 25.272H102.627V25.2968C102.615 25.4272 102.59 25.4769 102.577 25.5017C102.552 25.5328 102.528 25.5452 102.49 25.5452C102.465 25.5452 102.403 25.5328 102.254 25.4769C102.018 25.39 101.826 25.3341 101.696 25.3092C101.565 25.2844 101.416 25.272 101.261 25.272C100.82 25.272 100.435 25.3651 100.112 25.5514C99.7271 25.7749 99.4229 26.0978 99.1993 26.5201C99.0131 26.8678 98.9199 27.2403 98.9199 27.6253C98.9199 28.1531 99.0876 28.625 99.4167 29.0286C99.8575 29.5689 100.51 29.8421 101.354 29.8421C101.652 29.8421 101.919 29.811 102.161 29.7489C102.397 29.6868 102.652 29.5875 102.894 29.4571H102.906V28.1283C102.906 27.8923 102.925 27.7371 102.968 27.6626C103.024 27.557 103.136 27.5011 103.298 27.5011H103.403V27.3335H101.658V27.5011L101.671 27.5073ZM60.2666 29.2273C60.0679 29.395 59.7699 29.4819 59.3911 29.4819C59.1551 29.4819 58.913 29.4509 58.677 29.4012V27.6688C58.7143 27.6688 58.8819 27.6502 58.8819 27.6502H59.2234C59.5277 27.6502 59.7823 27.6874 59.9872 27.7806C60.1921 27.8675 60.3411 27.9855 60.4343 28.1345C60.5274 28.2897 60.5771 28.4512 60.5771 28.6064C60.5771 28.8548 60.4777 29.0597 60.279 29.2335M92.4994 25.3775C92.4994 25.3775 91.0092 28.6126 90.9595 28.712C90.916 28.6188 89.3948 25.3775 89.3948 25.3775H88.097V25.5452H88.1218C88.2957 25.5452 88.4199 25.5638 88.4944 25.6011C88.5751 25.6383 88.6248 25.688 88.6496 25.7439C88.6869 25.8246 88.7117 25.9612 88.7117 26.1475V28.9852C88.7117 29.2211 88.6869 29.3702 88.6434 29.4322C88.5689 29.5378 88.4447 29.5875 88.2709 29.5875H88.0908V29.7551H89.668V29.5875H89.4879C89.3265 29.5875 89.2023 29.544 89.1278 29.4633C89.0905 29.4198 89.047 29.3081 89.047 28.9852V26.2034C89.1402 26.4021 90.6925 29.7551 90.6925 29.7551H90.8353C90.8353 29.7551 92.3815 26.4083 92.4746 26.2096V28.9914C92.4746 29.2273 92.4498 29.3764 92.4063 29.4385C92.338 29.544 92.2138 29.5937 92.0337 29.5937H91.8537V29.7613H93.7661V29.5937H93.5861C93.4246 29.5937 93.3004 29.5502 93.2259 29.4695C93.1701 29.4074 93.1452 29.246 93.1452 28.9914V26.1537C93.1452 25.9177 93.1638 25.7687 93.2073 25.7066C93.2818 25.6073 93.406 25.5514 93.5861 25.5514H93.7661V25.3837H92.487L92.4994 25.3775ZM95.3868 28.0165C95.4116 27.9482 96.0636 26.4642 96.1071 26.3586C96.1505 26.4642 96.7653 27.9482 96.7901 28.0165H95.3868ZM112.891 25.3775V25.5452H113.071C113.17 25.5452 113.264 25.57 113.35 25.6197C113.413 25.6507 113.45 25.6942 113.468 25.7439C113.493 25.8122 113.512 25.955 113.512 26.1723V28.9603C113.512 29.277 113.475 29.395 113.437 29.4385C113.363 29.5378 113.239 29.5875 113.071 29.5875H112.891V29.7551H114.803V29.5875H114.623C114.524 29.5875 114.431 29.5626 114.344 29.513C114.282 29.4819 114.238 29.4385 114.22 29.3826C114.195 29.3205 114.183 29.1715 114.183 28.9603V26.1723C114.183 25.9177 114.207 25.7563 114.257 25.6942C114.332 25.5949 114.456 25.5452 114.623 25.5452H114.803V25.3775H112.891ZM98.2058 29.4447C98.1127 29.3639 98.0009 29.1777 97.8767 28.892L96.3865 25.2782H96.2064L94.6541 28.8486C94.5237 29.159 94.4057 29.3702 94.2939 29.4633C94.2443 29.513 94.1325 29.5502 93.9524 29.5875H93.9338V29.7551H95.362V29.5875H95.3371C95.1322 29.5689 95.0018 29.5378 94.9397 29.4943C94.8838 29.4509 94.8528 29.4012 94.8528 29.3453C94.8528 29.2646 94.89 29.1404 94.9646 28.979C94.9646 28.979 95.2378 28.3456 95.2502 28.3146H96.9081L97.1565 28.9169C97.2434 29.1156 97.2869 29.2646 97.2869 29.3515C97.2869 29.4136 97.2558 29.4633 97.2061 29.5068C97.1502 29.5502 97.0323 29.5751 96.8646 29.5875H96.8398V29.7551H98.6281V29.5875H98.6032C98.4356 29.5751 98.299 29.5254 98.1996 29.4447M85.9982 28.5257C85.8927 28.7927 85.7809 28.9852 85.6691 29.1032C85.5636 29.2273 85.4394 29.3143 85.3152 29.3577C85.1848 29.4074 84.9488 29.426 84.6198 29.426H84.3031C83.9616 29.426 83.8436 29.4136 83.8125 29.395C83.7629 29.3764 83.7318 29.3453 83.707 29.3081C83.6759 29.246 83.6635 29.128 83.6635 28.9541V26.2282C83.6635 25.9798 83.6759 25.8184 83.707 25.7563C83.738 25.6942 83.8001 25.6445 83.8808 25.6011C83.9678 25.5576 84.123 25.539 84.3465 25.5452H84.3714V25.3775H82.3595V25.5452H82.552C82.7073 25.5452 82.8252 25.5887 82.8998 25.6756C82.937 25.719 82.9805 25.8432 82.9805 26.1723V28.9603C82.9805 29.2584 82.9432 29.3764 82.9184 29.4136C82.8501 29.5316 82.7259 29.5813 82.552 29.5813H82.3595V29.7489H85.7809L86.1659 28.5319L86.0106 28.5008L85.9982 28.5195V28.5257ZM106.247 25.3775V25.5452H106.427C106.52 25.5452 106.62 25.5638 106.706 25.6197C106.769 25.6507 106.806 25.6942 106.831 25.7439C106.855 25.8122 106.868 25.955 106.868 26.1723V27.3894H104.9V26.1723C104.9 25.9612 104.912 25.8246 104.937 25.7563C104.962 25.6942 105.005 25.6445 105.061 25.6135C105.148 25.5638 105.241 25.5452 105.34 25.5452H105.52V25.3775H103.608V25.5452H103.788C103.881 25.5452 103.981 25.5638 104.067 25.6197C104.13 25.6507 104.167 25.6942 104.185 25.7439C104.21 25.8122 104.229 25.955 104.229 26.1723V28.9603C104.229 29.277 104.185 29.395 104.154 29.4385C104.08 29.5378 103.956 29.5875 103.788 29.5875H103.608V29.7551H105.52V29.5875H105.34C105.241 29.5875 105.154 29.5626 105.061 29.513C104.999 29.4819 104.955 29.4385 104.937 29.3826C104.912 29.3205 104.9 29.1715 104.9 28.9603V27.675H106.868V28.9603C106.868 29.2149 106.843 29.3764 106.793 29.4385C106.719 29.5378 106.595 29.5875 106.427 29.5875H106.247V29.7551H108.159V29.5875H107.979C107.88 29.5875 107.787 29.5626 107.7 29.513C107.638 29.4819 107.601 29.4385 107.582 29.3826C107.551 29.3205 107.539 29.1777 107.539 28.9603V26.1723C107.539 25.9612 107.551 25.8184 107.576 25.7563C107.601 25.6942 107.638 25.6445 107.7 25.6135C107.787 25.5638 107.88 25.5452 107.979 25.5452H108.159V25.3775H106.247ZM109.855 27.4887C109.855 27.4887 109.73 27.4887 109.699 27.4825V25.7377C109.898 25.7004 110.06 25.6818 110.171 25.6818C110.445 25.6818 110.662 25.7625 110.823 25.9302C110.985 26.0916 111.072 26.3027 111.072 26.5697C111.072 26.8367 110.966 27.0603 110.767 27.2341C110.562 27.408 110.258 27.4949 109.855 27.4949M78.9133 28.0165C78.9382 27.9482 79.5902 26.4642 79.6336 26.3586C79.6771 26.4642 80.2856 27.9482 80.3167 28.0165H78.9133ZM112.208 29.4074C112.065 29.3143 111.885 29.128 111.68 28.8486C111.68 28.8486 110.898 27.7743 110.792 27.6377C111.146 27.5508 111.413 27.4204 111.581 27.2279C111.761 27.0292 111.848 26.7871 111.848 26.5138C111.848 26.2593 111.773 26.0419 111.612 25.8557C111.457 25.6756 111.264 25.5452 111.041 25.4769C110.817 25.4086 110.476 25.3775 110.01 25.3775H108.395V25.5452H108.582C108.737 25.5452 108.855 25.5887 108.929 25.6756C108.967 25.719 109.01 25.8432 109.01 26.1723V28.9603C109.01 29.2584 108.973 29.3764 108.948 29.4136C108.874 29.5254 108.756 29.5813 108.582 29.5813H108.395V29.7489H110.308V29.5813H110.115C109.96 29.5813 109.842 29.5378 109.774 29.4509C109.737 29.4074 109.687 29.2894 109.687 28.9603V27.7371H109.761H109.848C109.848 27.7371 110.072 27.7371 110.103 27.7371C110.115 27.7557 111.587 29.7551 111.587 29.7551H112.792V29.5937H112.773C112.537 29.5626 112.351 29.5068 112.208 29.4136M75.5975 29.426C75.4175 29.3329 75.1939 29.1528 74.9331 28.8858C74.9331 28.8858 73.5236 27.4949 73.3435 27.3211C73.3808 27.2838 73.9831 26.6877 73.9831 26.6877L74.6351 26.0419C74.7965 25.8929 74.9331 25.7874 75.0449 25.719L75.3243 25.5887L75.5975 25.5452V25.5203V25.3775H73.9396V25.5452H74.0638C74.1632 25.5452 74.2377 25.5638 74.2812 25.5949C74.3184 25.6259 74.337 25.6632 74.337 25.7066C74.337 25.7625 74.3122 25.8308 74.2563 25.9115C74.1259 26.0978 73.7409 26.489 73.1076 27.0665C73.1076 27.0665 72.8157 27.3335 72.7102 27.4328V26.1723C72.7102 25.9612 72.7226 25.8184 72.7474 25.7563C72.7723 25.6942 72.8157 25.6445 72.8778 25.6135C72.9648 25.5638 73.0641 25.5452 73.1635 25.5452H73.3373V25.3775H71.4248V25.5452H71.6049C71.7043 25.5452 71.7974 25.57 71.8843 25.6197C71.9464 25.6507 71.9899 25.6942 72.0085 25.7439C72.0334 25.8122 72.0458 25.9612 72.0458 26.1723V28.9603C72.0458 29.277 72.0085 29.395 71.9713 29.4385C71.8968 29.5378 71.7726 29.5875 71.6049 29.5875H71.4248V29.7551H73.3373V29.5875H73.1635C73.0641 29.5875 72.971 29.5626 72.8778 29.513C72.8157 29.4819 72.7723 29.4385 72.7537 29.3826C72.7288 29.3205 72.7102 29.1715 72.7102 28.9603V27.6253C72.7971 27.7123 74.1694 29.0597 74.1694 29.0597C74.306 29.1901 74.3495 29.2584 74.3681 29.2832L74.3929 29.4074C74.3929 29.4509 74.3681 29.4881 74.3184 29.5254C74.2687 29.5689 74.1818 29.5875 74.0638 29.5875H74.039V29.7551H76.1688V29.5875H76.144C75.9639 29.5751 75.7776 29.5192 75.5975 29.426ZM81.7324 29.4447C81.6393 29.3639 81.5275 29.1777 81.4033 28.892L79.913 25.2782H79.733L78.1806 28.8486C78.0502 29.159 77.9323 29.3702 77.8205 29.4633C77.7708 29.513 77.361 29.5502 77.1871 29.5875H77.1623V29.7551H78.8885V29.5875H78.8637C78.6588 29.5689 78.5284 29.5378 78.4663 29.4943C78.4104 29.4509 78.3793 29.4012 78.3793 29.3453C78.3793 29.2646 78.4166 29.1404 78.4849 28.979C78.4849 28.979 78.7581 28.3456 78.7705 28.3146H80.4284L80.6768 28.9169C80.7575 29.1156 80.8072 29.2646 80.8072 29.3515C80.8072 29.4136 80.7762 29.4633 80.7265 29.5068C80.6706 29.5502 80.5526 29.5751 80.3912 29.5875H80.3663V29.7551H82.1546V29.5875H82.1298C81.9621 29.5751 81.8255 29.5254 81.7262 29.4447M117.958 29.2273C117.759 29.395 117.467 29.4819 117.082 29.4819C116.846 29.4819 116.604 29.4509 116.362 29.4012V27.6688C116.399 27.6688 116.567 27.6502 116.567 27.6502H116.908C117.207 27.6502 117.467 27.6874 117.672 27.7806C117.877 27.8675 118.026 27.9855 118.113 28.1345C118.206 28.2897 118.25 28.4512 118.25 28.6064C118.25 28.8548 118.15 29.0597 117.952 29.2335" fill="#3F2564"/>
<path d="M87.7741 27.321H86.3584V27.6626H87.7741V27.321Z" fill="#3F2564"/>
<path d="M60.6765 24.0115H59.863V21.0434L58.882 22.2915C58.7329 22.5151 58.6398 22.8069 58.5963 23.167C58.5529 23.4154 58.528 23.6948 58.528 24.0115H57.7146V19.1185H58.528V21.8569C59.4346 20.646 59.8817 19.8326 59.8693 19.4166V19.2738C59.8693 19.2117 59.8693 19.162 59.8568 19.1185H60.6703V24.0115H60.6765Z" fill="#3F2564"/>
<path d="M68.0718 21.6022C68.0594 22.2728 67.7551 22.8379 67.159 23.3098C66.5629 23.7817 65.8364 24.0115 64.9857 24.0115C64.1351 24.0115 63.4272 23.7755 62.8311 23.3036C62.235 22.8317 61.9307 22.2666 61.9183 21.6022C61.9121 20.913 62.2101 20.3293 62.8062 19.845C63.4023 19.3607 64.1288 19.1247 64.9795 19.1247C65.8302 19.1247 66.5629 19.3669 67.1714 19.8512C67.7737 20.3355 68.078 20.9192 68.0656 21.596M63.4272 20.3169C63.0608 20.6212 62.8497 20.9565 62.7938 21.3352H67.2087C67.1466 20.9503 66.9355 20.6087 66.5691 20.3045C66.1283 19.9443 65.5943 19.7705 64.9857 19.7767C64.3772 19.7767 63.8556 19.963 63.4334 20.3231M66.5691 22.8565C66.9293 22.5523 67.1466 22.2045 67.2087 21.8134H62.7938C62.8435 22.2108 63.0546 22.5585 63.4272 22.8627C63.868 23.2229 64.3834 23.3967 64.9795 23.3967C65.6067 23.3967 66.1345 23.2105 66.5629 22.8565" fill="#3F2564"/>
<path d="M70.1643 21.7513C70.5617 21.7513 70.8908 21.863 71.164 22.0804C71.431 22.2977 71.5677 22.5709 71.5677 22.8876C71.5677 23.2043 71.431 23.4775 71.164 23.6948C70.897 23.9121 70.5617 24.0239 70.1643 24.0239C69.7669 24.0239 69.444 23.9121 69.177 23.6948C68.91 23.4775 68.7734 23.2043 68.7734 22.8876C68.7734 22.5709 68.91 22.2977 69.177 22.0804C69.444 21.863 69.7731 21.7513 70.1643 21.7513ZM70.9219 22.8752C70.9219 22.6951 70.8474 22.5461 70.6983 22.4281C70.5493 22.3101 70.3692 22.248 70.1581 22.248C69.947 22.248 69.7794 22.3101 69.6303 22.4281C69.4813 22.5461 69.413 22.6951 69.413 22.8752C69.413 23.0552 69.4875 23.1981 69.6303 23.3223C69.7794 23.4402 69.9532 23.5023 70.1581 23.5023C70.363 23.5023 70.5493 23.4402 70.6983 23.3223C70.8474 23.2043 70.9219 23.0552 70.9219 22.8752Z" fill="#3F2564"/>
<path d="M73.058 19.1185H72.2632V24.0115H73.058V19.1185Z" fill="#3F2564"/>
<path d="M78.4911 19.1185L76.7711 21.5091L78.4911 24.0115H77.6156L76.3054 22.1735L74.9828 24.0115H74.0576V19.1185H78.4973H78.4911ZM77.1933 19.7519H74.8462V23.0242L77.1933 19.7519Z" fill="#3F2564"/>
<path d="M82.4651 19.1185H81.6703V24.0115H82.4651V19.1185Z" fill="#3F2564"/>
<path d="M88.8049 24.0115H87.9915V21.0434L87.0104 22.2915C86.8614 22.5151 86.7682 22.8069 86.7247 23.167C86.6813 23.4154 86.6564 23.6948 86.6564 24.0115H85.843V19.1185H86.6564V21.8569C87.563 20.646 88.0101 19.8326 87.9977 19.4166V19.2738C87.9977 19.2117 87.9977 19.162 87.9915 19.1185H88.8049V24.0115Z" fill="#3F2564"/>
<path d="M94.3871 24.0115H89.8792V19.1185H94.3871V19.7705H90.6864V23.3657H94.3871V24.0115Z" fill="#3F2564"/>
<path d="M95.4985 19.1123H96.312V21.2111H99.4229V19.1123H100.23V21.8631H98.2741V24.0115H97.4545V21.8631H95.4985V19.1123Z" fill="#3F2564"/>
<path d="M107.222 21.5961C107.203 22.2667 106.905 22.8317 106.328 23.3036C105.75 23.7693 105.036 24.0053 104.204 24.0053C103.372 24.0053 102.683 23.7693 102.105 23.2974C101.522 22.8255 101.23 22.2605 101.224 21.5961C101.217 20.9068 101.503 20.3231 102.087 19.8388C102.67 19.3545 103.378 19.1185 104.204 19.1185C105.03 19.1185 105.756 19.3607 106.346 19.845C106.936 20.3294 107.228 20.913 107.222 21.5961ZM106.39 21.5836C106.39 21.0807 106.172 20.646 105.75 20.2859C105.322 19.9258 104.819 19.7519 104.235 19.7643C103.62 19.7643 103.105 19.9506 102.683 20.3045C102.267 20.6585 102.056 21.0931 102.056 21.5961C102.074 22.068 102.292 22.4778 102.701 22.8255C103.117 23.1732 103.62 23.3471 104.217 23.3533C104.794 23.3533 105.291 23.1733 105.719 22.8193C106.148 22.4716 106.371 22.0556 106.39 21.5774" fill="#3F2564"/>
<path d="M109.625 22.5709L112.295 23.4464V24.0984L108.166 22.7634L110.078 21.4594L108.24 20.1679L112.295 18.926V19.5718L109.761 20.3542L111.239 21.3974L109.625 22.5709Z" fill="#3F2564"/>
<path d="M119.411 21.6022C119.398 22.2728 119.094 22.8379 118.492 23.3098C117.896 23.7817 117.169 24.0115 116.319 24.0115C115.468 24.0115 114.76 23.7755 114.164 23.3036C113.568 22.8317 113.264 22.2666 113.251 21.6022C113.245 20.913 113.543 20.3293 114.139 19.845C114.735 19.3607 115.462 19.1247 116.319 19.1247C117.176 19.1247 117.902 19.3669 118.511 19.8512C119.113 20.3355 119.417 20.9192 119.411 21.596M114.766 20.3169C114.4 20.6212 114.189 20.9565 114.133 21.3352H118.548C118.486 20.9503 118.275 20.6087 117.908 20.3045C117.467 19.9443 116.933 19.7705 116.325 19.7767C115.716 19.7767 115.195 19.963 114.766 20.3231M117.908 22.8565C118.268 22.5523 118.486 22.2045 118.548 21.8134H114.133C114.183 22.2108 114.394 22.5585 114.766 22.8627C115.207 23.2229 115.729 23.3967 116.325 23.3967C116.952 23.3967 117.48 23.2105 117.908 22.8565Z" fill="#3F2564"/>
<path d="M76.9264 11.2823C76.0757 11.0401 75.8025 11.6921 75.1567 11.6549C75.2622 11.0091 75.2809 6.87364 75.0884 5.57589C74.9269 4.49546 74.6165 3.63857 74.2377 2.78788C74.0763 2.45879 73.5671 1.99308 73.356 2.21662C72.8778 2.8003 72.3004 3.30326 72.1327 4.04838C72.0272 4.59481 72.1327 5.14123 72.3687 5.50758C72.6046 5.74975 72.8406 6.01675 73.2815 5.9795C73.9459 7.774 73.8217 10.2515 73.7223 12.4C73.7223 12.8346 73.7534 13.3252 73.387 13.6481C72.1638 14.6043 70.4314 15.9269 68.5685 14.8713C68.0656 14.5484 67.8855 14.387 67.6496 13.9585C68.0221 13.4121 68.8045 13.2445 69.4875 13.0706C69.6552 12.8346 69.8787 12.6235 70.0961 12.3938C70.4686 11.9902 70.8101 11.8846 70.6425 11.2699C69.6552 11.065 68.2891 11.2016 67.5192 10.4192C67.1777 10.146 66.8548 9.51884 66.4946 9.67407L65.7868 10.5931C65.2217 11.2823 63.955 11.8163 62.9304 11.3754C62.3592 11.1519 62.0673 11.8411 61.8128 12.2944C61.5706 12.7291 61.0801 13.1079 61.3408 13.3128C61.8128 13.5487 62.5579 13.617 63.1726 13.4804C63.719 13.8219 64.3276 14.0206 64.8057 14.4987C65.0044 14.7037 64.7995 14.8961 64.6008 14.9396C63.1105 15.2128 59.8506 15.486 58.3852 14.9396C58.0809 14.3994 58.1554 13.4866 57.4041 13.2755C56.9757 13.2072 56.2367 14.3311 56.0443 15.4177C55.9387 16.0263 56.2119 16.3678 56.5224 16.6782C56.7521 18.2057 52.3 25.4645 44.6376 23.0242C44.4327 22.9249 43.9919 22.9621 43.8242 22.9621L44.1285 23.2664C44.9667 23.7693 46.2459 24.055 47.4132 24.1108C54.3988 24.2537 57.1247 18.8888 58.0623 17.1874C59.0806 17.1501 61.2663 17.1812 62.266 17.0881C63.8867 16.8769 64.5759 16.2063 65.6253 15.5916L65.8861 15.4239C66.4325 15.6972 66.8858 16.3367 67.3267 16.7527C69.0467 18.0443 71.3193 16.4982 72.6916 15.4612C73.0579 15.188 73.1697 15.1011 73.6726 14.8154C73.8776 15.7034 74.3867 16.5168 75.1318 16.8831C75.5044 17.0197 75.8149 17.0198 76.1502 16.8521C76.827 16.138 77.4728 15.4239 78.0503 14.6726C78.3545 14.0951 78.4911 12.9775 78.1496 12.3317C77.9136 11.8598 77.5038 11.4127 76.9326 11.2823M66.7678 13.5052C66.1779 13.3314 65.7681 12.8843 65.2527 12.5428C65.0416 12.3689 65.7557 11.8784 65.7557 11.748C66.3518 11.9964 66.8175 12.4248 67.3639 12.8098C67.4509 13.0582 66.8548 13.3314 66.7678 13.5052ZM75.2622 13.1824C75.4982 12.9154 76.324 13.2693 76.5848 13.7909C76.7525 14.1138 76.7897 14.5422 76.7525 15.0141C75.8708 15.219 75.2995 13.7598 75.2622 13.1824Z" fill="#3F2564"/>
<path d="M80.8943 12.9464C80.9067 10.4626 81.0806 8.06582 80.559 5.88013C80.2982 4.7997 79.9381 4.35262 79.9381 4.35262C79.9381 4.35262 79.5344 3.89313 79.3544 3.79999C78.7583 4.0049 78.2181 4.96735 77.7027 5.54482C77.6344 6.35825 77.9759 6.90467 78.2429 7.51319C78.5161 7.92301 78.8576 7.48214 79.0936 7.7864C79.4661 9.58712 79.4351 11.7914 79.3358 13.7971C79.3358 13.7971 79.3233 15.9641 80.3168 17.3612C80.5404 17.7338 80.708 17.9636 80.9937 18.3113C81.2172 18.4417 81.3662 18.3051 81.5835 18.1809C82.13 17.8083 82.7261 17.2929 82.6267 16.5416C81.5711 15.6971 80.8819 14.3621 80.8881 12.9464" fill="#3F2564"/>
<path d="M67.0474 7.4449C67.1157 7.14064 67.6559 6.86743 67.2834 6.45761C66.6686 6.15956 66.0912 5.8491 65.2467 5.88014C64.8058 6.28996 64.365 6.76187 64.1228 7.33934C64.9052 7.5753 65.6503 7.81747 66.2278 8.28938C66.532 8.08447 66.6686 7.68086 67.0474 7.43869" fill="#3F2564"/>
<path d="M121.025 11.0712C120.609 10.6117 120.473 10.4751 120.113 10.2577C119.43 10.6303 118.951 11.4189 118.92 12.1516C118.889 13.0333 119.392 13.5487 119.902 13.9834C120.243 14.2938 120.206 13.5673 120.479 13.8157C120.715 14.0579 121.032 14.6353 120.752 14.803C119.666 15.4115 115.406 15.3432 113.972 15.3805C113.152 15.4053 110.252 15.5233 109.234 14.7036C108.656 14.1634 108.483 13.5114 108.11 12.934C108.004 12.7974 107.737 12.667 107.57 12.7974C107.03 13.4804 106.806 14.8775 106.21 15.0079C104.509 15.3805 104.54 13.4431 103.832 12.5242C102.913 11.332 101.031 11.1457 99.1126 11.2699C96.5853 11.4313 93.8222 11.6238 91.3384 11.2699C90.494 11.0774 89.606 10.9283 89.3018 10.1149C88.9292 8.99723 89.9475 8.3142 90.5561 7.63738C90.792 7.33312 91.0155 7.57529 91.2701 7.77399C91.8103 8.17139 92.2326 8.86684 92.7976 8.86684C93.2758 8.79854 93.8408 8.54395 93.7477 8.15276C93.6111 7.54424 93.3751 6.99782 93.0336 6.52591C92.7417 6.13472 92.4437 5.74973 91.947 5.84288C90.9845 6.55695 90.1028 7.35796 89.3328 8.22106C88.4635 9.18352 87.1595 10.4564 87.973 11.9218C89.1527 13.6543 92.4251 13.1761 94.9337 13.0768C97.2808 13.0085 100.466 12.3317 102.031 13.9213C102.348 14.269 102.652 14.7471 102.608 14.9955C102.043 15.188 101.298 15.219 100.578 15.2128C98.5537 15.2004 96.5357 15.3867 94.5301 15.486C93.2447 15.5233 91.4688 15.4984 90.0531 15.3867C88.2462 15.2376 86.8242 14.6105 86.1101 13.1761C85.9735 13.0395 85.8059 13.1761 85.7003 13.2444C85.1229 13.5797 84.682 14.2317 84.8186 14.9396C85.5637 16.1939 86.7932 16.8955 88.5566 17.0446C92.363 17.3675 95.9582 16.8086 99.7645 16.8459C100.938 16.8459 102.683 17.0135 103.67 16.4361C104.242 16.8086 104.887 17.4544 105.806 17.0508C106.44 16.7279 106.794 15.9952 107.061 15.2873L107.334 15.219C107.539 16.1007 108.147 16.8583 108.961 17.1563C110.277 17.6034 118.312 17.1874 119.43 17.057C119.566 17.6655 120.2 17.8766 120.752 17.9015C121.292 17.9015 121.715 16.8831 121.938 16.1753C122.478 14.4056 122.081 12.3192 121.019 11.0774" fill="#3F2564"/>
<path d="M52.7534 17.3302C53.2253 17.5972 53.4985 17.1563 53.7717 16.8831C54.2126 16.3801 54.6721 15.871 54.6845 15.1196C54.728 13.2382 53.8028 11.7542 52.5485 10.742C52.3436 10.5682 52.089 10.6613 51.971 10.8476C51.5985 11.3878 50.9092 11.7045 50.8844 12.4124C50.8844 12.816 51.0396 13.1389 51.2942 13.3313C51.5115 13.4928 51.8717 13.5673 52.1449 13.499C52.4491 13.9709 52.8217 14.5173 52.7907 15.2004C51.6668 15.5853 46.8607 15.7406 46.8607 15.7406C46.8607 15.7406 40.9866 16.1566 40.5085 13.1947C40.3595 11.7231 41.4213 9.99691 41.8994 9.38839L41.4523 9.258C40.8749 9.8603 39.4281 12.2385 39.1176 13.2941C38.8196 14.331 39.13 15.3742 39.6392 16.0448C40.3222 17.0321 41.589 17.2805 42.8122 17.4668C44.3645 17.7089 48.4068 17.3736 49.8226 17.1749C50.9527 17.0135 52.0828 16.7465 52.7472 17.3364" fill="#3F2564"/>
<path d="M108.874 8.66193C109.315 8.19002 109.588 7.5815 109.892 6.99782C109.724 6.42656 108.911 6.59422 108.569 6.2527C108.228 6.22165 108.228 5.84288 107.818 5.88014C107.681 6.08505 107.514 6.22165 107.414 6.42656C107.241 6.89848 106.7 7.23999 106.868 7.75537C107.414 8.22728 108.228 8.33284 108.874 8.66814" fill="#3F2564"/>
<path d="M51.5053 18.4603C51.2693 18.5597 50.3131 19.6153 50.0771 20.0251C50.487 20.5343 51.201 20.733 51.673 21.2483C52.2504 20.7702 52.9272 20.3604 53.1632 19.6215C52.7534 19.0751 52.1076 18.7708 51.5053 18.4665" fill="#3F2564"/>
<path d="M120.895 19.5345C120.46 19.845 120.181 20.5156 120.001 20.9254C119.721 21.5153 120.398 21.5836 120.951 21.7265C121.385 21.8506 121.609 22.099 122.162 22.0059L123 20.615L122.963 20.3666C122.255 20.1244 121.603 19.727 120.895 19.5345Z" fill="#3F2564"/>
</svg>
